<svg width="67" height="67" viewBox="0 0 67 67" fill="none" xmlns="http://www.w3.org/2000/svg">
<path d="M33.5 6.28125C18.4917 6.28125 6.28125 18.4917 6.28125 33.5C6.28125 48.5083 18.4917 60.7188 33.5 60.7188C48.5083 60.7188 60.7188 48.5083 60.7188 33.5C60.7188 18.4917 48.5083 6.28125 33.5 6.28125ZM33.7617 18.8438C35.6252 18.8438 37.4468 19.3963 38.9962 20.4316C40.5457 21.4669 41.7533 22.9384 42.4664 24.66C43.1795 26.3817 43.3661 28.2761 43.0026 30.1037C42.639 31.9314 41.7417 33.6102 40.424 34.9279C39.1063 36.2456 37.4275 37.1429 35.5998 37.5065C33.7722 37.87 31.8777 37.6834 30.1561 36.9703C28.4345 36.2572 26.963 35.0496 25.9277 33.5001C24.8924 31.9507 24.3398 30.1291 24.3398 28.2656C24.3398 25.7668 25.3325 23.3703 27.0994 21.6034C28.8664 19.8364 31.2629 18.8438 33.7617 18.8438ZM33.5 56.5312C30.3233 56.5326 27.1809 55.875 24.2713 54.6002C21.3617 53.3253 18.748 51.4609 16.5956 49.1246C17.7524 43.1339 28.1426 41.875 33.5 41.875C38.8574 41.875 49.2476 43.1339 50.4044 49.1233C48.2522 51.46 45.6387 53.3248 42.729 54.5999C39.8193 55.875 36.6768 56.5326 33.5 56.5312Z" fill="black"/>
</svg>
